<?xml version="1.0" encoding="UTF-8" standalone="no"?>
<!-- Created with Inkscape (http://www.inkscape.org/) -->

<svg
   xmlns:dc="http://purl.org/dc/elements/1.1/"
   xmlns:cc="http://creativecommons.org/ns#"
   xmlns:rdf="http://www.w3.org/1999/02/22-rdf-syntax-ns#"
   xmlns:svg="http://www.w3.org/2000/svg"
   xmlns="http://www.w3.org/2000/svg"
   xmlns:sodipodi="http://sodipodi.sourceforge.net/DTD/sodipodi-0.dtd"
   xmlns:inkscape="http://www.inkscape.org/namespaces/inkscape"
   width="210mm"
   height="297mm"
   viewBox="0 0 210 297"
   version="1.1"
   id="svg8"
   sodipodi:docname="ubos-staff-master.svg"
   inkscape:version="0.91 r13725"
   inkscape:export-filename="/home/jernst/git/github.com/uboslinux/ubos-docs/images/logo2/ubos-1000x1000.png"
   inkscape:export-xdpi="254"
   inkscape:export-ydpi="254">
  <defs
     id="defs2" />
  <sodipodi:namedview
     id="base"
     pagecolor="#ffffff"
     bordercolor="#666666"
     borderopacity="1.0"
     inkscape:pageopacity="0.0"
     inkscape:pageshadow="2"
     inkscape:zoom="1"
     inkscape:cx="372.46388"
     inkscape:cy="292.58376"
     inkscape:document-units="mm"
     inkscape:current-layer="layer1"
     showgrid="false"
     inkscape:window-width="1916"
     inkscape:window-height="1035"
     inkscape:window-x="9"
     inkscape:window-y="0"
     inkscape:window-maximized="0" />
  <metadata
     id="metadata5">
    <rdf:RDF>
      <cc:Work
         rdf:about="">
        <dc:format>image/svg+xml</dc:format>
        <dc:type
           rdf:resource="http://purl.org/dc/dcmitype/StillImage" />
      </cc:Work>
    </rdf:RDF>
  </metadata>
  <g
     inkscape:label="Layer 1"
     inkscape:groupmode="layer"
     id="layer1">
    <path
       style="fill:#000000;fill-opacity:1;fill-rule:evenodd;stroke:#000000;stroke-width:0.2072396px;stroke-linecap:butt;stroke-linejoin:miter;stroke-opacity:1"
       d="m 104.77635,126.21332 c 8.76402,0.0307 18.49518,4.77625 18.62912,14.48671 0.10291,7.46085 -6.298,14.73845 -7.02858,17.72481 -0.35262,1.44139 -0.29292,2.3543 0.63692,2.8687 1.29889,0.71856 2.70202,-0.83999 3.40576,-0.57883 0.37663,0.13977 0.53909,0.4792 0.47897,0.87641 -0.1719,1.13554 -1.53918,1.99651 -2.67406,2.17267 -1.65609,0.25706 -3.76931,-0.43126 -4.67961,-1.83841 0,0 -1.45248,-1.89236 -0.33426,-5.51525 1.50222,-4.86699 4.09744,-9.23858 3.17545,-13.20317 -1.18423,-5.09217 -6.5437,-7.02659 -9.64476,-7.48943 -4.83771,-0.72206 -12.05921,2.84301 -12.520172,4.93762 -0.702939,3.19415 -0.960867,7.71823 -1.002947,13.78191 -0.04932,7.10617 0,80.17394 0,80.17394 l -7.045004,0 0,-97.43389 c 0,-5.27716 11.37846,-10.98912 18.603173,-10.96379 z"
       id="path4217"
       inkscape:connector-curvature="0"
       sodipodi:nodetypes="sssssssssssssccss"
       inkscape:export-xdpi="254"
       inkscape:export-ydpi="254" />
    <g
       id="g4145"
       transform="matrix(0.5,0,0,0.5,55,113.5)"
       inkscape:export-xdpi="254"
       inkscape:export-ydpi="254">
      <rect
         inkscape:export-ydpi="254"
         inkscape:export-xdpi="254"
         y="127"
         x="50"
         height="100"
         width="100"
         id="rect18-7"
         style="fill:#2fd82f;fill-opacity:1;stroke-width:0.26458332" />
      <path
         inkscape:export-ydpi="254"
         inkscape:export-xdpi="254"
         d="m 79.097,164.63266 -5.571,5.27438 -4.4e-4,8.69105 c -1.77e-4,3.49674 -0.7112,4.445 -3.081867,4.445 -2.370666,0 -3.081866,-0.94826 -3.081866,-4.445 l 0,-12.14966 -5.571067,0 0,12.14966 c 0,6.37117 2.370667,8.7122 8.949267,8.7122 6.1341,0 8.3566,-2.34103 8.3566,-8.7122 z"
         style="font-style:normal;font-variant:normal;font-weight:800;font-stretch:normal;font-size:29.63333321px;line-height:1.25;font-family:'Exo 2';-inkscape-font-specification:'Exo 2, Ultra-Bold';text-align:start;letter-spacing:0.26458332px;word-spacing:0px;writing-mode:lr-tb;text-anchor:start;fill:#000000;fill-opacity:1;stroke:none;stroke-width:0.26458332"
         id="path73"
         inkscape:connector-curvature="0"
         sodipodi:nodetypes="ccsssccsssc" />
      <path
         inkscape:export-ydpi="254"
         inkscape:export-xdpi="254"
         d="m 94.899726,176.19779 c 2.607733,-0.23706 3.6449,-1.71873 3.6449,-4.65243 0,-4.20793 -1.9558,-5.334 -7.4676,-5.334 -3.704167,0 -5.837767,0.0296 -8.326967,0.23707 l 0,20.447 c 2.7559,0.20743 5.096934,0.23706 9.275234,0.23706 5.008033,0 7.2009,-1.12606 7.2009,-5.334 0,-3.25966 -1.126067,-5.1562 -4.326467,-5.4229 z m -1.659467,-3.88196 c 0,1.83726 -0.503766,2.28176 -2.3114,2.28176 l -2.726266,0 0,-4.47463 2.5781,0 c 1.926166,0 2.459566,0.41487 2.459566,2.19287 z m -5.037666,10.90506 0,-5.21546 2.785533,0 c 2.1336,0 2.667,0.5334 2.667,2.69663 0,2.0447 -0.5334,2.51883 -2.607733,2.51883 z"
         style="font-style:normal;font-variant:normal;font-weight:800;font-stretch:normal;font-size:29.63333321px;line-height:1.25;font-family:'Exo 2';-inkscape-font-specification:'Exo 2, Ultra-Bold';text-align:start;letter-spacing:0.26458332px;word-spacing:0px;writing-mode:lr-tb;text-anchor:start;fill:#000000;fill-opacity:1;stroke:none;stroke-width:0.26458332"
         id="path75"
         inkscape:connector-curvature="0" />
      <path
         inkscape:export-ydpi="254"
         inkscape:export-xdpi="254"
         d="m 110.82228,166.03356 c -6.7564,0 -9.1567,2.3114 -9.1567,10.63837 0,8.32696 2.4003,10.63836 9.1567,10.63836 6.7564,0 9.18634,-2.3114 9.18634,-10.63836 0,-8.32697 -2.42994,-10.63837 -9.18634,-10.63837 z m 0,4.2672 c 2.60774,0 3.31894,1.3335 3.31894,6.37117 0,5.03766 -0.7112,6.37116 -3.31894,6.37116 -2.60773,0 -3.31893,-1.3335 -3.31893,-6.37116 0,-5.03767 0.7112,-6.37117 3.31893,-6.37117 z"
         style="font-style:normal;font-variant:normal;font-weight:800;font-stretch:normal;font-size:29.63333321px;line-height:1.25;font-family:'Exo 2';-inkscape-font-specification:'Exo 2, Ultra-Bold';text-align:start;letter-spacing:0.26458332px;word-spacing:0px;writing-mode:lr-tb;text-anchor:start;fill:#000000;fill-opacity:1;stroke:none;stroke-width:0.26458332"
         id="path77"
         inkscape:connector-curvature="0" />
      <path
         inkscape:export-ydpi="254"
         inkscape:export-xdpi="254"
         d="m 130.47494,166.06319 c -5.7785,0 -7.97137,1.1557 -7.97137,5.83777 0,3.0226 1.18533,4.77097 4.41537,6.07483 l 4.0894,1.62984 c 1.21496,0.4445 1.62983,0.74083 1.62983,1.71873 0,1.03717 -0.50377,1.27423 -2.45957,1.27423 -1.21496,0 -3.49673,-0.0593 -7.14163,-0.14816 l -0.32597,3.94123 c 3.34857,0.82973 6.1341,0.889 7.49724,0.889 6.01556,0 8.001,-1.45203 8.001,-6.07483 0,-2.99297 -1.12607,-4.8006 -4.47464,-6.1341 l -3.76343,-1.45204 c -1.45203,-0.50376 -1.9558,-0.85936 -1.9558,-1.80763 0,-1.12607 0.59267,-1.27423 2.4003,-1.27423 2.37067,0 5.0673,0.0593 6.81567,0.0889 l 0.3556,-3.6449 c -2.37067,-0.77047 -5.03767,-0.91864 -7.112,-0.91864 z"
         style="font-style:normal;font-variant:normal;font-weight:800;font-stretch:normal;font-size:29.63333321px;line-height:1.25;font-family:'Exo 2';-inkscape-font-specification:'Exo 2, Ultra-Bold';text-align:start;letter-spacing:0.26458332px;word-spacing:0px;writing-mode:lr-tb;text-anchor:start;fill:#000000;fill-opacity:1;stroke:none;stroke-width:0.26458332"
         id="path79"
         inkscape:connector-curvature="0" />
    </g>
    <text
       xml:space="preserve"
       style="font-style:normal;font-variant:normal;font-weight:normal;font-stretch:normal;font-size:12.69999981px;line-height:125%;font-family:Sans;-inkscape-font-specification:'Sans, Normal';text-align:start;letter-spacing:0px;word-spacing:0px;writing-mode:lr-tb;text-anchor:start;fill:#000000;fill-opacity:1;stroke:none;stroke-width:1px;stroke-linecap:butt;stroke-linejoin:miter;stroke-opacity:1"
       x="89.537376"
       y="250.99777"
       id="text4219"
       sodipodi:linespacing="125%"
       inkscape:export-xdpi="254"
       inkscape:export-ydpi="254"><tspan
         sodipodi:role="line"
         id="tspan4221"
         x="89.537376"
         y="250.99777"
         style="font-style:normal;font-variant:normal;font-weight:normal;font-stretch:normal;font-size:12.69999981px;line-height:125%;font-family:Sans;-inkscape-font-specification:'Sans, Normal';text-align:start;writing-mode:lr-tb;text-anchor:start">Staff</tspan></text>
  </g>
</svg>
