<?xml version="1.0" encoding="UTF-8" standalone="no"?>
<!-- Created with Inkscape (http://www.inkscape.org/) -->

<svg
   xmlns:dc="http://purl.org/dc/elements/1.1/"
   xmlns:cc="http://creativecommons.org/ns#"
   xmlns:rdf="http://www.w3.org/1999/02/22-rdf-syntax-ns#"
   xmlns:svg="http://www.w3.org/2000/svg"
   xmlns="http://www.w3.org/2000/svg"
   xmlns:sodipodi="http://sodipodi.sourceforge.net/DTD/sodipodi-0.dtd"
   xmlns:inkscape="http://www.inkscape.org/namespaces/inkscape"
   width="210mm"
   height="297mm"
   viewBox="0 0 210 297"
   version="1.1"
   id="svg8"
   sodipodi:docname="ubos-1000x1000.svg"
   inkscape:version="0.92.2 2405546, 2018-03-11"
   inkscape:export-filename="/home/jernst/git/github.com/uboslinux/ubos-docs/images/logo3/ubos-1000x1000.png"
   inkscape:export-xdpi="254"
   inkscape:export-ydpi="254">
  <defs
     id="defs2" />
  <sodipodi:namedview
     id="base"
     pagecolor="#ffffff"
     bordercolor="#666666"
     borderopacity="1.0"
     inkscape:pageopacity="0.0"
     inkscape:pageshadow="2"
     inkscape:zoom="1"
     inkscape:cx="299.91764"
     inkscape:cy="775.82638"
     inkscape:document-units="mm"
     inkscape:current-layer="layer1"
     showgrid="false"
     inkscape:window-width="1920"
     inkscape:window-height="1021"
     inkscape:window-x="0"
     inkscape:window-y="0"
     inkscape:window-maximized="1" />
  <metadata
     id="metadata5">
    <rdf:RDF>
      <cc:Work
         rdf:about="">
        <dc:format>image/svg+xml</dc:format>
        <dc:type
           rdf:resource="http://purl.org/dc/dcmitype/StillImage" />
      </cc:Work>
    </rdf:RDF>
  </metadata>
  <g
     inkscape:label="Layer 1"
     inkscape:groupmode="layer"
     id="layer1">
    <rect
       style="fill:#2fd82f;fill-opacity:1;stroke-width:0.26458332"
       id="rect18-7"
       width="100"
       height="100"
       x="50"
       y="47"
       inkscape:export-xdpi="254"
       inkscape:export-ydpi="254" />
    <path
       sodipodi:nodetypes="ccsssccsssc"
       inkscape:connector-curvature="0"
       id="path73"
       style="font-style:normal;font-variant:normal;font-weight:800;font-stretch:normal;font-size:29.63333321px;line-height:1.25;font-family:'Exo 2';-inkscape-font-specification:'Exo 2, Ultra-Bold';font-variant-ligatures:normal;font-variant-caps:normal;font-variant-numeric:normal;font-feature-settings:normal;text-align:start;letter-spacing:0.26458332px;word-spacing:0px;writing-mode:lr-tb;text-anchor:start;fill:#000000;fill-opacity:1;stroke:none;stroke-width:0.26458332"
       d="m 79.097,84.63266 -5.571,5.27438 -4.4e-4,8.69105 c -1.77e-4,3.49674 -0.7112,4.445 -3.081867,4.445 -2.370666,0 -3.081866,-0.94826 -3.081866,-4.445 V 86.44843 H 61.79076 v 12.14966 c 0,6.37117 2.370667,8.7122 8.949267,8.7122 6.1341,0 8.3566,-2.34103 8.3566,-8.7122 z"
       inkscape:export-xdpi="254"
       inkscape:export-ydpi="254" />
    <path
       inkscape:connector-curvature="0"
       id="path75"
       style="font-style:normal;font-variant:normal;font-weight:800;font-stretch:normal;font-size:29.63333321px;line-height:1.25;font-family:'Exo 2';-inkscape-font-specification:'Exo 2, Ultra-Bold';font-variant-ligatures:normal;font-variant-caps:normal;font-variant-numeric:normal;font-feature-settings:normal;text-align:start;letter-spacing:0.26458332px;word-spacing:0px;writing-mode:lr-tb;text-anchor:start;fill:#000000;fill-opacity:1;stroke:none;stroke-width:0.26458332"
       d="m 94.899726,96.19779 c 2.607733,-0.23706 3.6449,-1.71873 3.6449,-4.65243 0,-4.20793 -1.9558,-5.334 -7.4676,-5.334 -3.704167,0 -5.837767,0.0296 -8.326967,0.23707 v 20.447 c 2.7559,0.20743 5.096934,0.23706 9.275234,0.23706 5.008033,0 7.2009,-1.12606 7.2009,-5.334 0,-3.25966 -1.126067,-5.1562 -4.326467,-5.4229 z m -1.659467,-3.88196 c 0,1.83726 -0.503766,2.28176 -2.3114,2.28176 h -2.726266 v -4.47463 h 2.5781 c 1.926166,0 2.459566,0.41487 2.459566,2.19287 z m -5.037666,10.90506 v -5.21546 h 2.785533 c 2.1336,0 2.667,0.5334 2.667,2.69663 0,2.0447 -0.5334,2.51883 -2.607733,2.51883 z"
       inkscape:export-xdpi="254"
       inkscape:export-ydpi="254" />
    <path
       inkscape:connector-curvature="0"
       id="path77"
       style="font-style:normal;font-variant:normal;font-weight:800;font-stretch:normal;font-size:29.63333321px;line-height:1.25;font-family:'Exo 2';-inkscape-font-specification:'Exo 2, Ultra-Bold';font-variant-ligatures:normal;font-variant-caps:normal;font-variant-numeric:normal;font-feature-settings:normal;text-align:start;letter-spacing:0.26458332px;word-spacing:0px;writing-mode:lr-tb;text-anchor:start;fill:#000000;fill-opacity:1;stroke:none;stroke-width:0.26458332"
       d="m 110.82228,86.03356 c -6.7564,0 -9.1567,2.3114 -9.1567,10.63837 0,8.32696 2.4003,10.63836 9.1567,10.63836 6.7564,0 9.18634,-2.3114 9.18634,-10.63836 0,-8.32697 -2.42994,-10.63837 -9.18634,-10.63837 z m 0,4.2672 c 2.60774,0 3.31894,1.3335 3.31894,6.37117 0,5.03766 -0.7112,6.37116 -3.31894,6.37116 -2.60773,0 -3.31893,-1.3335 -3.31893,-6.37116 0,-5.03767 0.7112,-6.37117 3.31893,-6.37117 z"
       inkscape:export-xdpi="254"
       inkscape:export-ydpi="254" />
    <path
       inkscape:connector-curvature="0"
       id="path79"
       style="font-style:normal;font-variant:normal;font-weight:800;font-stretch:normal;font-size:29.63333321px;line-height:1.25;font-family:'Exo 2';-inkscape-font-specification:'Exo 2, Ultra-Bold';font-variant-ligatures:normal;font-variant-caps:normal;font-variant-numeric:normal;font-feature-settings:normal;text-align:start;letter-spacing:0.26458332px;word-spacing:0px;writing-mode:lr-tb;text-anchor:start;fill:#000000;fill-opacity:1;stroke:none;stroke-width:0.26458332"
       d="m 130.47494,86.06319 c -5.7785,0 -7.97137,1.1557 -7.97137,5.83777 0,3.0226 1.18533,4.77097 4.41537,6.07483 l 4.0894,1.62984 c 1.21496,0.4445 1.62983,0.74083 1.62983,1.71873 0,1.03717 -0.50377,1.27423 -2.45957,1.27423 -1.21496,0 -3.49673,-0.0593 -7.14163,-0.14816 l -0.32597,3.94123 c 3.34857,0.82973 6.1341,0.889 7.49724,0.889 6.01556,0 8.001,-1.45203 8.001,-6.07483 0,-2.99297 -1.12607,-4.8006 -4.47464,-6.1341 l -3.76343,-1.45204 c -1.45203,-0.50376 -1.9558,-0.85936 -1.9558,-1.80763 0,-1.12607 0.59267,-1.27423 2.4003,-1.27423 2.37067,0 5.0673,0.0593 6.81567,0.0889 l 0.3556,-3.6449 c -2.37067,-0.77047 -5.03767,-0.91864 -7.112,-0.91864 z"
       inkscape:export-xdpi="254"
       inkscape:export-ydpi="254" />
    <text
       xml:space="preserve"
       style="font-style:normal;font-weight:normal;font-size:10.58333302px;line-height:1.25;font-family:sans-serif;letter-spacing:0px;word-spacing:0px;fill:#4d4d4d;fill-opacity:1;stroke:none;stroke-width:0.26458332;"
       x="138.93605"
       y="88.799004"
       id="text21"><tspan
         sodipodi:role="line"
         id="tspan19"
         x="138.93605"
         y="89"
         style="font-size:3.5px;fill:#4d4d4d;stroke-width:0.26458332;">®</tspan></text>
  </g>
</svg>
