<?xml version="1.0" encoding="UTF-8" standalone="no"?>
<!-- Created with Inkscape (http://www.inkscape.org/) -->

<svg
   xmlns:dc="http://purl.org/dc/elements/1.1/"
   xmlns:cc="http://creativecommons.org/ns#"
   xmlns:rdf="http://www.w3.org/1999/02/22-rdf-syntax-ns#"
   xmlns:svg="http://www.w3.org/2000/svg"
   xmlns="http://www.w3.org/2000/svg"
   xmlns:sodipodi="http://sodipodi.sourceforge.net/DTD/sodipodi-0.dtd"
   xmlns:inkscape="http://www.inkscape.org/namespaces/inkscape"
   width="210mm"
   height="297mm"
   viewBox="0 0 210 297"
   version="1.1"
   id="svg8"
   sodipodi:docname="ubos-letters-only.svg"
   inkscape:version="0.92.2 2405546, 2018-03-11"
   inkscape:export-filename="/home/jernst/git/github.com/uboslinux/ubos-docs/images/logo2/ubos-1000x1000.png"
   inkscape:export-xdpi="254"
   inkscape:export-ydpi="254">
  <sodipodi:namedview
     id="base"
     pagecolor="#ffffff"
     bordercolor="#666666"
     borderopacity="1.0"
     inkscape:pageopacity="0.0"
     inkscape:pageshadow="2"
     inkscape:zoom="2.02"
     inkscape:cx="82.760307"
     inkscape:cy="38.947086"
     inkscape:document-units="mm"
     inkscape:current-layer="layer1"
     showgrid="false"
     inkscape:window-width="1920"
     inkscape:window-height="1021"
     inkscape:window-x="0"
     inkscape:window-y="0"
     inkscape:window-maximized="1" />
  <defs
     id="defs2" />
  <metadata
     id="metadata5">
    <rdf:RDF>
      <cc:Work
         rdf:about="">
        <dc:format>image/svg+xml</dc:format>
        <dc:type
           rdf:resource="http://purl.org/dc/dcmitype/StillImage" />
        <dc:title></dc:title>
      </cc:Work>
    </rdf:RDF>
  </metadata>
  <g
     id="layer1"
     inkscape:groupmode="layer"
     inkscape:label="Layer 1">
    <path
       inkscape:export-ydpi="254"
       inkscape:export-xdpi="254"
       d="m 17.360889,274.58175 -5.571,5.27438 -4.4e-4,8.69105 -0.148241,2.16972 -0.201881,0.77336 -0.301878,0.5907 -0.412995,0.42679 -0.53523,0.28163 -1.4816421,0.2028 -1.4816663,-0.2028 -0.535252,-0.28163 -0.4130145,-0.42679 -0.3018895,-0.5907 -0.2018771,-0.77336 -0.1481666,-2.16972 V 276.39752 H 0.05464889 v 12.14966 l 0.11471342,2.20358 0.35849392,1.84554 0.62380487,1.50731 0.9106463,1.18886 1.2190181,0.89021 1.5489205,0.61137 1.9003533,0.3523 2.2733166,0.11303 2.1202301,-0.11303 1.773312,-0.3523 1.446188,-0.61137 1.138857,-0.89021 0.851322,-1.18886 0.58358,-1.50731 0.335632,-1.84554 0.107479,-2.20358 3.73e-4,-13.96543"
       style="font-style:normal;font-variant:normal;font-weight:800;font-stretch:normal;font-size:29.63333321px;line-height:1.25;font-family:'Exo 2';-inkscape-font-specification:'Exo 2, Ultra-Bold';font-variant-ligatures:normal;font-variant-caps:normal;font-variant-numeric:normal;font-feature-settings:normal;text-align:start;letter-spacing:0.26458332px;word-spacing:0px;writing-mode:lr-tb;text-anchor:start;fill:#000000;fill-opacity:1;stroke:none;stroke-width:0.26458332"
       id="path73"
       inkscape:connector-curvature="0"
       sodipodi:nodetypes="ccsssccsssc" />
    <path
       inkscape:export-ydpi="254"
       inkscape:export-xdpi="254"
       d="m 33.163615,286.14688 1.669653,-0.4144 0.629592,-0.3883 0.501105,-0.51227 0.378867,-0.63868 0.26288,-0.76752 0.202803,-1.93126 -0.0948,-1.43733 -0.296912,-1.17133 -0.517773,-0.92824 -0.757386,-0.70807 -1.015752,-0.51083 -1.29287,-0.3365 -1.58874,-0.18509 -1.903363,-0.0566 -4.619096,0.0407 -3.707871,0.19634 v 20.447 l 4.104217,0.19632 5.171017,0.0407 1.747267,-0.0566 1.490637,-0.1851 1.241301,-0.33649 0.999257,-0.51083 0.764506,-0.70808 0.537046,-0.92824 0.31688,-1.17132 0.104006,-1.43734 -0.225954,-2.18499 -0.299112,-0.893 -0.438018,-0.75582 -0.588036,-0.61553 -0.749168,-0.47211 -0.921411,-0.32556 -1.104768,-0.17589 v -0.1778 m -1.659467,-3.88196 -0.106958,1.13162 -0.370879,0.69823 -0.709811,0.35375 -1.123752,0.0982 h -2.726266 v -4.47463 h 2.5781 l 1.196908,0.0926 0.755187,0.33708 0.394031,0.67045 0.11344,1.09273 v 0 m -5.037666,10.90506 v -5.21546 h 2.785533 l 1.316831,0.11714 0.816769,0.41996 0.416719,0.82557 0.116681,1.33396 -0.115755,1.25618 -0.410237,0.77 -0.799174,0.38662 -1.282567,0.10603 h -2.8448"
       style="font-style:normal;font-variant:normal;font-weight:800;font-stretch:normal;font-size:29.63333321px;line-height:1.25;font-family:'Exo 2';-inkscape-font-specification:'Exo 2, Ultra-Bold';font-variant-ligatures:normal;font-variant-caps:normal;font-variant-numeric:normal;font-feature-settings:normal;text-align:start;letter-spacing:0.26458332px;word-spacing:0px;writing-mode:lr-tb;text-anchor:start;fill:#000000;fill-opacity:1;stroke:none;stroke-width:0.26458332"
       id="path75"
       inkscape:connector-curvature="0" />
    <path
       inkscape:export-ydpi="254"
       inkscape:export-xdpi="254"
       d="m 49.086169,275.98265 -2.333278,0.11558 -1.947813,0.37569 -1.585267,0.67919 -1.245642,1.02611 -0.928936,1.41644 -0.635148,1.85017 -0.364282,2.32732 -0.116334,2.84787 0.116334,2.84787 0.364282,2.32731 0.635148,1.85017 0.928936,1.41644 1.245642,1.02611 1.585267,0.6792 1.947813,0.37568 2.333278,0.11558 2.334551,-0.11558 1.951171,-0.37568 1.590014,-0.6792 1.251084,-1.02611 0.934377,-1.41644 0.639896,-1.85017 0.367639,-2.32731 0.117608,-2.84787 -0.117608,-2.84787 -0.367639,-2.32732 -0.639896,-1.85017 -0.934377,-1.41644 -1.251084,-1.02611 -1.590014,-0.67919 -1.951171,-0.37569 -2.334551,-0.11558 v 0 m 0,4.2672 0.891317,0.0671 0.727408,0.21993 0.577388,0.40052 0.441259,0.60887 0.319022,0.84501 0.210675,1.10894 0.151871,3.12076 -0.151871,3.12076 -0.210675,1.10893 -0.319022,0.84501 -0.441259,0.60888 -0.577388,0.40051 -0.727408,0.21993 -0.891317,0.0671 -0.891314,-0.0671 -0.727405,-0.21993 -0.577386,-0.40051 -0.441259,-0.60888 -0.319021,-0.84501 -0.210674,-1.10893 -0.151871,-3.12076 0.151871,-3.12076 0.210674,-1.10894 0.319021,-0.84501 0.441259,-0.60887 0.577386,-0.40052 0.727405,-0.21993 0.891314,-0.0671 v 0"
       style="font-style:normal;font-variant:normal;font-weight:800;font-stretch:normal;font-size:29.63333321px;line-height:1.25;font-family:'Exo 2';-inkscape-font-specification:'Exo 2, Ultra-Bold';font-variant-ligatures:normal;font-variant-caps:normal;font-variant-numeric:normal;font-feature-settings:normal;text-align:start;letter-spacing:0.26458332px;word-spacing:0px;writing-mode:lr-tb;text-anchor:start;fill:#000000;fill-opacity:1;stroke:none;stroke-width:0.26458332"
       id="path77"
       inkscape:connector-curvature="0" />
    <path
       inkscape:export-ydpi="254"
       inkscape:export-xdpi="254"
       d="m 68.738829,276.01228 -2.001581,0.0588 -1.68175,0.19494 -1.37824,0.35884 -1.091052,0.55053 -0.820184,0.77 -0.565638,1.01726 -0.327414,1.29229 -0.105511,1.59511 0.235677,2.041 0.309703,0.86561 0.45104,0.77533 0.602448,0.69477 0.763927,0.62392 2.052575,1.0742 4.0894,1.62984 0.767222,0.31856 0.503303,0.34078 0.275498,0.4408 0.08381,0.61859 -0.109274,0.63666 -0.387086,0.38939 -0.753799,0.19493 -1.209411,0.0532 -7.14163,-0.14816 -0.32597,3.94123 2.39243,0.48895 2.100726,0.2667 3.004084,0.13335 2.070917,-0.0714 1.717054,-0.22769 1.387152,-0.4041 1.081212,-0.60065 0.799232,-0.81735 0.541215,-1.05418 0.307157,-1.31116 0.09706,-1.58828 -0.22827,-2.03359 -0.30461,-0.87094 -0.448726,-0.78482 -0.60569,-0.70703 -0.775504,-0.63758 -2.11184,-1.10014 -3.76343,-1.45204 -0.918169,-0.36161 -0.604242,-0.37551 -0.331987,-0.45886 -0.101402,-0.61165 0.120849,-0.67416 0.40144,-0.38523 0.74037,-0.17409 1.137641,-0.0408 6.81567,0.0889 0.3556,-3.6449 -1.819674,-0.46858 -1.847454,-0.27967 -3.444872,-0.17039 v 0"
       style="font-style:normal;font-variant:normal;font-weight:800;font-stretch:normal;font-size:29.63333321px;line-height:1.25;font-family:'Exo 2';-inkscape-font-specification:'Exo 2, Ultra-Bold';font-variant-ligatures:normal;font-variant-caps:normal;font-variant-numeric:normal;font-feature-settings:normal;text-align:start;letter-spacing:0.26458332px;word-spacing:0px;writing-mode:lr-tb;text-anchor:start;fill:#000000;fill-opacity:1;stroke:none;stroke-width:0.26458332"
       id="path79"
       inkscape:connector-curvature="0" />
  </g>
</svg>
