  0
SECTION
  2
HEADER
  9
$ACADVER
  1
AC1014
  9
$HANDSEED
  5
FFFF
  9
$MEASUREMENT
 70
     1
  0
ENDSEC
  0
SECTION
  2
TABLES
  0
TABLE
  2
VPORT
  5
8
330
0
100
AcDbSymbolTable
 70
     4
  0
VPORT
  5
2E
330
8
100
AcDbSymbolTableRecord
100
AcDbViewportTableRecord
  2
*ACTIVE
 70
     0
 10
0.0
 20
0.0
 11
1.0
 21
1.0
 12
210.0
 22
148.5
 13
0.0
 23
0.0
 14
10.0
 24
10.0
 15
10.0
 25
10.0
 16
0.0
 26
0.0
 36
1.0
 17
0.0
 27
0.0
 37
0.0
 40
341.0
 41
1.24
 42
50.0
 43
0.0
 44
0.0
 50
0.0
 51
0.0
 71
     0
 72
   100
 73
     1
 74
     3
 75
     0
 76
     0
 77
     0
 78
     0
  0
ENDTAB
  0
TABLE
  2
LTYPE
  5
5
330
0
100
AcDbSymbolTable
 70
     1
  0
LTYPE
  5
14
330
5
100
AcDbSymbolTableRecord
100
AcDbLinetypeTableRecord
  2
BYBLOCK
 70
     0
  3

 72
    65
 73
     0
 40
0.0
  0
LTYPE
  5
15
330
5
100
AcDbSymbolTableRecord
100
AcDbLinetypeTableRecord
  2
BYLAYER
 70
     0
  3

 72
    65
 73
     0
 40
0.0
  0
LTYPE
  5
16
330
5
100
AcDbSymbolTableRecord
100
AcDbLinetypeTableRecord
  2
CONTINUOUS
 70
     0
  3
Solid line
 72
    65
 73
     0
 40
0.0
  0
ENDTAB
  0
TABLE
  2
LAYER
  5
2
100
AcDbSymbolTable
 70
2
  0
LAYER
  5
50
100
AcDbSymbolTableRecord
100
AcDbLayerTableRecord
  2
0
 70
0
  6
CONTINUOUS
  0
LAYER
  5
51
100
AcDbSymbolTableRecord
100
AcDbLayerTableRecord
  2
Layer_1
 70
0
  6
CONTINUOUS
  0
ENDTAB
  0
TABLE
  2
STYLE
  5
3
330
0
100
AcDbSymbolTable
 70
     1
  0
STYLE
  5
11
330
3
100
AcDbSymbolTableRecord
100
AcDbTextStyleTableRecord
  2
STANDARD
 70
     0
 40
0.0
 41
1.0
 50
0.0
 71
     0
 42
2.5
  3
txt
  4

  0
ENDTAB
  0
TABLE
  2
VIEW
  5
6
330
0
100
AcDbSymbolTable
 70
     0
  0
ENDTAB
  0
TABLE
  2
UCS
  5
7
330
0
100
AcDbSymbolTable
 70
     0
  0
ENDTAB
  0
TABLE
  2
APPID
  5
9
330
0
100
AcDbSymbolTable
 70
     2
  0
APPID
  5
12
330
9
100
AcDbSymbolTableRecord
100
AcDbRegAppTableRecord
  2
ACAD
 70
     0
  0
ENDTAB
  0
TABLE
  2
DIMSTYLE
  5
A
330
0
100
AcDbSymbolTable
 70
     1
  0
DIMSTYLE
105
27
330
A
100
AcDbSymbolTableRecord
100
AcDbDimStyleTableRecord
  2
ISO-25
 70
     0
  3

  4

  5

  6

  7

 40
1.0
 41
2.5
 42
0.625
 43
3.75
 44
1.25
 45
0.0
 46
0.0
 47
0.0
 48
0.0
140
2.5
141
2.5
142
0.0
143
0.03937007874016
144
1.0
145
0.0
146
1.0
147
0.625
 71
     0
 72
     0
 73
     0
 74
     0
 75
     0
 76
     0
 77
     1
 78
     8
170
     0
171
     3
172
     1
173
     0
174
     0
175
     0
176
     0
177
     0
178
     0
270
     2
271
     2
272
     2
273
     2
274
     3
340
11
275
     0
280
     0
281
     0
282
     0
283
     0
284
     8
285
     0
286
     0
287
     3
288
     0
  0
ENDTAB
  0
TABLE
  2
BLOCK_RECORD
  5
1
330
0
100
AcDbSymbolTable
 70
     1
  0
BLOCK_RECORD
  5
1F
330
1
100
AcDbSymbolTableRecord
100
AcDbBlockTableRecord
  2
*MODEL_SPACE
  0
BLOCK_RECORD
  5
1B
330
1
100
AcDbSymbolTableRecord
100
AcDbBlockTableRecord
  2
*PAPER_SPACE
  0
ENDTAB
  0
ENDSEC
  0
SECTION
  2
BLOCKS
  0
BLOCK
  5
20
330
1F
100
AcDbEntity
  8
0
100
AcDbBlockBegin
  2
*MODEL_SPACE
 70
     0
 10
0.0
 20
0.0
 30
0.0
  3
*MODEL_SPACE
  1

  0
ENDBLK
  5
21
330
1F
100
AcDbEntity
  8
0
100
AcDbBlockEnd
  0
BLOCK
  5
1C
330
1B
100
AcDbEntity
 67
     1
  8
0
100
AcDbBlockBegin
  2
*PAPER_SPACE
  1

  0
ENDBLK
  5
1D
330
1B
100
AcDbEntity
 67
     1
  8
0
100
AcDbBlockEnd
  0
ENDSEC
  0
SECTION
  2
ENTITIES
  0
LINE
  5
100
100
AcDbEntity
  8
Layer_1
 62
7
100
AcDbLine
 10
17.360889
 20
22.418250
 30
0.0
 11
11.789889
 21
17.143870
 31
0.0
  0
LINE
  5
101
100
AcDbEntity
  8
Layer_1
 62
7
100
AcDbLine
 10
11.789889
 20
17.143870
 30
0.0
 11
11.789449
 21
8.452820
 31
0.0
  0
LINE
  5
102
100
AcDbEntity
  8
Layer_1
 62
7
100
AcDbLine
 10
11.789449
 20
8.452820
 30
0.0
 11
11.641208
 21
6.283100
 31
0.0
  0
LINE
  5
103
100
AcDbEntity
  8
Layer_1
 62
7
100
AcDbLine
 10
11.641208
 20
6.283100
 30
0.0
 11
11.439327
 21
5.509740
 31
0.0
  0
LINE
  5
104
100
AcDbEntity
  8
Layer_1
 62
7
100
AcDbLine
 10
11.439327
 20
5.509740
 30
0.0
 11
11.137449
 21
4.919040
 31
0.0
  0
LINE
  5
105
100
AcDbEntity
  8
Layer_1
 62
7
100
AcDbLine
 10
11.137449
 20
4.919040
 30
0.0
 11
10.724454
 21
4.492250
 31
0.0
  0
LINE
  5
106
100
AcDbEntity
  8
Layer_1
 62
7
100
AcDbLine
 10
10.724454
 20
4.492250
 30
0.0
 11
10.189224
 21
4.210620
 31
0.0
  0
LINE
  5
107
100
AcDbEntity
  8
Layer_1
 62
7
100
AcDbLine
 10
10.189224
 20
4.210620
 30
0.0
 11
8.707582
 21
4.007820
 31
0.0
  0
LINE
  5
108
100
AcDbEntity
  8
Layer_1
 62
7
100
AcDbLine
 10
8.707582
 20
4.007820
 30
0.0
 11
7.225916
 21
4.210620
 31
0.0
  0
LINE
  5
109
100
AcDbEntity
  8
Layer_1
 62
7
100
AcDbLine
 10
7.225916
 20
4.210620
 30
0.0
 11
6.690664
 21
4.492250
 31
0.0
  0
LINE
  5
10a
100
AcDbEntity
  8
Layer_1
 62
7
100
AcDbLine
 10
6.690664
 20
4.492250
 30
0.0
 11
6.277649
 21
4.919040
 31
0.0
  0
LINE
  5
10b
100
AcDbEntity
  8
Layer_1
 62
7
100
AcDbLine
 10
6.277649
 20
4.919040
 30
0.0
 11
5.975760
 21
5.509740
 31
0.0
  0
LINE
  5
10c
100
AcDbEntity
  8
Layer_1
 62
7
100
AcDbLine
 10
5.975760
 20
5.509740
 30
0.0
 11
5.773883
 21
6.283100
 31
0.0
  0
LINE
  5
10d
100
AcDbEntity
  8
Layer_1
 62
7
100
AcDbLine
 10
5.773883
 20
6.283100
 30
0.0
 11
5.625716
 21
8.452820
 31
0.0
  0
LINE
  5
10e
100
AcDbEntity
  8
Layer_1
 62
7
100
AcDbLine
 10
5.625716
 20
8.452820
 30
0.0
 11
5.625716
 21
20.602480
 31
0.0
  0
LINE
  5
10f
100
AcDbEntity
  8
Layer_1
 62
7
100
AcDbLine
 10
5.625716
 20
20.602480
 30
0.0
 11
0.054649
 21
20.602480
 31
0.0
  0
LINE
  5
110
100
AcDbEntity
  8
Layer_1
 62
7
100
AcDbLine
 10
0.054649
 20
20.602480
 30
0.0
 11
0.054649
 21
8.452820
 31
0.0
  0
LINE
  5
111
100
AcDbEntity
  8
Layer_1
 62
7
100
AcDbLine
 10
0.054649
 20
8.452820
 30
0.0
 11
0.169362
 21
6.249240
 31
0.0
  0
LINE
  5
112
100
AcDbEntity
  8
Layer_1
 62
7
100
AcDbLine
 10
0.169362
 20
6.249240
 30
0.0
 11
0.527856
 21
4.403700
 31
0.0
  0
LINE
  5
113
100
AcDbEntity
  8
Layer_1
 62
7
100
AcDbLine
 10
0.527856
 20
4.403700
 30
0.0
 11
1.151661
 21
2.896390
 31
0.0
  0
LINE
  5
114
100
AcDbEntity
  8
Layer_1
 62
7
100
AcDbLine
 10
1.151661
 20
2.896390
 30
0.0
 11
2.062307
 21
1.707530
 31
0.0
  0
LINE
  5
115
100
AcDbEntity
  8
Layer_1
 62
7
100
AcDbLine
 10
2.062307
 20
1.707530
 30
0.0
 11
3.281326
 21
0.817320
 31
0.0
  0
LINE
  5
116
100
AcDbEntity
  8
Layer_1
 62
7
100
AcDbLine
 10
3.281326
 20
0.817320
 30
0.0
 11
4.830246
 21
0.205950
 31
0.0
  0
LINE
  5
117
100
AcDbEntity
  8
Layer_1
 62
7
100
AcDbLine
 10
4.830246
 20
0.205950
 30
0.0
 11
6.730599
 21
-0.146350
 31
0.0
  0
LINE
  5
118
100
AcDbEntity
  8
Layer_1
 62
7
100
AcDbLine
 10
6.730599
 20
-0.146350
 30
0.0
 11
9.003916
 21
-0.259380
 31
0.0
  0
LINE
  5
119
100
AcDbEntity
  8
Layer_1
 62
7
100
AcDbLine
 10
9.003916
 20
-0.259380
 30
0.0
 11
11.124146
 21
-0.146350
 31
0.0
  0
LINE
  5
11a
100
AcDbEntity
  8
Layer_1
 62
7
100
AcDbLine
 10
11.124146
 20
-0.146350
 30
0.0
 11
12.897458
 21
0.205950
 31
0.0
  0
LINE
  5
11b
100
AcDbEntity
  8
Layer_1
 62
7
100
AcDbLine
 10
12.897458
 20
0.205950
 30
0.0
 11
14.343646
 21
0.817320
 31
0.0
  0
LINE
  5
11c
100
AcDbEntity
  8
Layer_1
 62
7
100
AcDbLine
 10
14.343646
 20
0.817320
 30
0.0
 11
15.482503
 21
1.707530
 31
0.0
  0
LINE
  5
11d
100
AcDbEntity
  8
Layer_1
 62
7
100
AcDbLine
 10
15.482503
 20
1.707530
 30
0.0
 11
16.333825
 21
2.896390
 31
0.0
  0
LINE
  5
11e
100
AcDbEntity
  8
Layer_1
 62
7
100
AcDbLine
 10
16.333825
 20
2.896390
 30
0.0
 11
16.917405
 21
4.403700
 31
0.0
  0
LINE
  5
11f
100
AcDbEntity
  8
Layer_1
 62
7
100
AcDbLine
 10
16.917405
 20
4.403700
 30
0.0
 11
17.253037
 21
6.249240
 31
0.0
  0
LINE
  5
120
100
AcDbEntity
  8
Layer_1
 62
7
100
AcDbLine
 10
17.253037
 20
6.249240
 30
0.0
 11
17.360516
 21
8.452820
 31
0.0
  0
LINE
  5
121
100
AcDbEntity
  8
Layer_1
 62
7
100
AcDbLine
 10
17.360516
 20
8.452820
 30
0.0
 11
17.360889
 21
22.418250
 31
0.0
  0
LINE
  5
122
100
AcDbEntity
  8
Layer_1
 62
7
100
AcDbLine
 10
33.163615
 20
10.853120
 30
0.0
 11
34.833268
 21
11.267520
 31
0.0
  0
LINE
  5
123
100
AcDbEntity
  8
Layer_1
 62
7
100
AcDbLine
 10
34.833268
 20
11.267520
 30
0.0
 11
35.462860
 21
11.655820
 31
0.0
  0
LINE
  5
124
100
AcDbEntity
  8
Layer_1
 62
7
100
AcDbLine
 10
35.462860
 20
11.655820
 30
0.0
 11
35.963965
 21
12.168090
 31
0.0
  0
LINE
  5
125
100
AcDbEntity
  8
Layer_1
 62
7
100
AcDbLine
 10
35.963965
 20
12.168090
 30
0.0
 11
36.342832
 21
12.806770
 31
0.0
  0
LINE
  5
126
100
AcDbEntity
  8
Layer_1
 62
7
100
AcDbLine
 10
36.342832
 20
12.806770
 30
0.0
 11
36.605712
 21
13.574290
 31
0.0
  0
LINE
  5
127
100
AcDbEntity
  8
Layer_1
 62
7
100
AcDbLine
 10
36.605712
 20
13.574290
 30
0.0
 11
36.808515
 21
15.505550
 31
0.0
  0
LINE
  5
128
100
AcDbEntity
  8
Layer_1
 62
7
100
AcDbLine
 10
36.808515
 20
15.505550
 30
0.0
 11
36.713715
 21
16.942880
 31
0.0
  0
LINE
  5
129
100
AcDbEntity
  8
Layer_1
 62
7
100
AcDbLine
 10
36.713715
 20
16.942880
 30
0.0
 11
36.416803
 21
18.114210
 31
0.0
  0
LINE
  5
12a
100
AcDbEntity
  8
Layer_1
 62
7
100
AcDbLine
 10
36.416803
 20
18.114210
 30
0.0
 11
35.899030
 21
19.042450
 31
0.0
  0
LINE
  5
12b
100
AcDbEntity
  8
Layer_1
 62
7
100
AcDbLine
 10
35.899030
 20
19.042450
 30
0.0
 11
35.141644
 21
19.750520
 31
0.0
  0
LINE
  5
12c
100
AcDbEntity
  8
Layer_1
 62
7
100
AcDbLine
 10
35.141644
 20
19.750520
 30
0.0
 11
34.125892
 21
20.261350
 31
0.0
  0
LINE
  5
12d
100
AcDbEntity
  8
Layer_1
 62
7
100
AcDbLine
 10
34.125892
 20
20.261350
 30
0.0
 11
32.833022
 21
20.597850
 31
0.0
  0
LINE
  5
12e
100
AcDbEntity
  8
Layer_1
 62
7
100
AcDbLine
 10
32.833022
 20
20.597850
 30
0.0
 11
31.244282
 21
20.782940
 31
0.0
  0
LINE
  5
12f
100
AcDbEntity
  8
Layer_1
 62
7
100
AcDbLine
 10
31.244282
 20
20.782940
 30
0.0
 11
29.340919
 21
20.839540
 31
0.0
  0
LINE
  5
130
100
AcDbEntity
  8
Layer_1
 62
7
100
AcDbLine
 10
29.340919
 20
20.839540
 30
0.0
 11
24.721823
 21
20.798840
 31
0.0
  0
LINE
  5
131
100
AcDbEntity
  8
Layer_1
 62
7
100
AcDbLine
 10
24.721823
 20
20.798840
 30
0.0
 11
21.013952
 21
20.602500
 31
0.0
  0
LINE
  5
132
100
AcDbEntity
  8
Layer_1
 62
7
100
AcDbLine
 10
21.013952
 20
20.602500
 30
0.0
 11
21.013952
 21
0.155500
 31
0.0
  0
LINE
  5
133
100
AcDbEntity
  8
Layer_1
 62
7
100
AcDbLine
 10
21.013952
 20
0.155500
 30
0.0
 11
25.118169
 21
-0.040820
 31
0.0
  0
LINE
  5
134
100
AcDbEntity
  8
Layer_1
 62
7
100
AcDbLine
 10
25.118169
 20
-0.040820
 30
0.0
 11
30.289186
 21
-0.081520
 31
0.0
  0
LINE
  5
135
100
AcDbEntity
  8
Layer_1
 62
7
100
AcDbLine
 10
30.289186
 20
-0.081520
 30
0.0
 11
32.036453
 21
-0.024920
 31
0.0
  0
LINE
  5
136
100
AcDbEntity
  8
Layer_1
 62
7
100
AcDbLine
 10
32.036453
 20
-0.024920
 30
0.0
 11
33.527090
 21
0.160180
 31
0.0
  0
LINE
  5
137
100
AcDbEntity
  8
Layer_1
 62
7
100
AcDbLine
 10
33.527090
 20
0.160180
 30
0.0
 11
34.768391
 21
0.496670
 31
0.0
  0
LINE
  5
138
100
AcDbEntity
  8
Layer_1
 62
7
100
AcDbLine
 10
34.768391
 20
0.496670
 30
0.0
 11
35.767648
 21
1.007500
 31
0.0
  0
LINE
  5
139
100
AcDbEntity
  8
Layer_1
 62
7
100
AcDbLine
 10
35.767648
 20
1.007500
 30
0.0
 11
36.532154
 21
1.715580
 31
0.0
  0
LINE
  5
13a
100
AcDbEntity
  8
Layer_1
 62
7
100
AcDbLine
 10
36.532154
 20
1.715580
 30
0.0
 11
37.069200
 21
2.643820
 31
0.0
  0
LINE
  5
13b
100
AcDbEntity
  8
Layer_1
 62
7
100
AcDbLine
 10
37.069200
 20
2.643820
 30
0.0
 11
37.386080
 21
3.815140
 31
0.0
  0
LINE
  5
13c
100
AcDbEntity
  8
Layer_1
 62
7
100
AcDbLine
 10
37.386080
 20
3.815140
 30
0.0
 11
37.490086
 21
5.252480
 31
0.0
  0
LINE
  5
13d
100
AcDbEntity
  8
Layer_1
 62
7
100
AcDbLine
 10
37.490086
 20
5.252480
 30
0.0
 11
37.264132
 21
7.437470
 31
0.0
  0
LINE
  5
13e
100
AcDbEntity
  8
Layer_1
 62
7
100
AcDbLine
 10
37.264132
 20
7.437470
 30
0.0
 11
36.965020
 21
8.330470
 31
0.0
  0
LINE
  5
13f
100
AcDbEntity
  8
Layer_1
 62
7
100
AcDbLine
 10
36.965020
 20
8.330470
 30
0.0
 11
36.527002
 21
9.086290
 31
0.0
  0
LINE
  5
140
100
AcDbEntity
  8
Layer_1
 62
7
100
AcDbLine
 10
36.527002
 20
9.086290
 30
0.0
 11
35.938966
 21
9.701820
 31
0.0
  0
LINE
  5
141
100
AcDbEntity
  8
Layer_1
 62
7
100
AcDbLine
 10
35.938966
 20
9.701820
 30
0.0
 11
35.189798
 21
10.173930
 31
0.0
  0
LINE
  5
142
100
AcDbEntity
  8
Layer_1
 62
7
100
AcDbLine
 10
35.189798
 20
10.173930
 30
0.0
 11
34.268387
 21
10.499490
 31
0.0
  0
LINE
  5
143
100
AcDbEntity
  8
Layer_1
 62
7
100
AcDbLine
 10
34.268387
 20
10.499490
 30
0.0
 11
33.163619
 21
10.675380
 31
0.0
  0
LINE
  5
144
100
AcDbEntity
  8
Layer_1
 62
7
100
AcDbLine
 10
33.163619
 20
10.675380
 30
0.0
 11
33.163619
 21
10.853180
 31
0.0
  0
LINE
  5
145
100
AcDbEntity
  8
Layer_1
 62
7
100
AcDbLine
 10
31.504152
 20
14.735140
 30
0.0
 11
31.397194
 21
13.603520
 31
0.0
  0
LINE
  5
146
100
AcDbEntity
  8
Layer_1
 62
7
100
AcDbLine
 10
31.397194
 20
13.603520
 30
0.0
 11
31.026315
 21
12.905290
 31
0.0
  0
LINE
  5
147
100
AcDbEntity
  8
Layer_1
 62
7
100
AcDbLine
 10
31.026315
 20
12.905290
 30
0.0
 11
30.316504
 21
12.551540
 31
0.0
  0
LINE
  5
148
100
AcDbEntity
  8
Layer_1
 62
7
100
AcDbLine
 10
30.316504
 20
12.551540
 30
0.0
 11
29.192752
 21
12.453340
 31
0.0
  0
LINE
  5
149
100
AcDbEntity
  8
Layer_1
 62
7
100
AcDbLine
 10
29.192752
 20
12.453340
 30
0.0
 11
26.466486
 21
12.453340
 31
0.0
  0
LINE
  5
14a
100
AcDbEntity
  8
Layer_1
 62
7
100
AcDbLine
 10
26.466486
 20
12.453340
 30
0.0
 11
26.466486
 21
16.927970
 31
0.0
  0
LINE
  5
14b
100
AcDbEntity
  8
Layer_1
 62
7
100
AcDbLine
 10
26.466486
 20
16.927970
 30
0.0
 11
29.044586
 21
16.927970
 31
0.0
  0
LINE
  5
14c
100
AcDbEntity
  8
Layer_1
 62
7
100
AcDbLine
 10
29.044586
 20
16.927970
 30
0.0
 11
30.241494
 21
16.835370
 31
0.0
  0
LINE
  5
14d
100
AcDbEntity
  8
Layer_1
 62
7
100
AcDbLine
 10
30.241494
 20
16.835370
 30
0.0
 11
30.996681
 21
16.498290
 31
0.0
  0
LINE
  5
14e
100
AcDbEntity
  8
Layer_1
 62
7
100
AcDbLine
 10
30.996681
 20
16.498290
 30
0.0
 11
31.390712
 21
15.827840
 31
0.0
  0
LINE
  5
14f
100
AcDbEntity
  8
Layer_1
 62
7
100
AcDbLine
 10
31.390712
 20
15.827840
 30
0.0
 11
31.504152
 21
14.735110
 31
0.0
  0
LINE
  5
150
100
AcDbEntity
  8
Layer_1
 62
7
100
AcDbLine
 10
31.504152
 20
14.735110
 30
0.0
 11
31.504152
 21
14.735110
 31
0.0
  0
LINE
  5
151
100
AcDbEntity
  8
Layer_1
 62
7
100
AcDbLine
 10
26.466486
 20
3.830050
 30
0.0
 11
26.466486
 21
9.045510
 31
0.0
  0
LINE
  5
152
100
AcDbEntity
  8
Layer_1
 62
7
100
AcDbLine
 10
26.466486
 20
9.045510
 30
0.0
 11
29.252019
 21
9.045510
 31
0.0
  0
LINE
  5
153
100
AcDbEntity
  8
Layer_1
 62
7
100
AcDbLine
 10
29.252019
 20
9.045510
 30
0.0
 11
30.568850
 21
8.928370
 31
0.0
  0
LINE
  5
154
100
AcDbEntity
  8
Layer_1
 62
7
100
AcDbLine
 10
30.568850
 20
8.928370
 30
0.0
 11
31.385619
 21
8.508410
 31
0.0
  0
LINE
  5
155
100
AcDbEntity
  8
Layer_1
 62
7
100
AcDbLine
 10
31.385619
 20
8.508410
 30
0.0
 11
31.802338
 21
7.682840
 31
0.0
  0
LINE
  5
156
100
AcDbEntity
  8
Layer_1
 62
7
100
AcDbLine
 10
31.802338
 20
7.682840
 30
0.0
 11
31.919019
 21
6.348880
 31
0.0
  0
LINE
  5
157
100
AcDbEntity
  8
Layer_1
 62
7
100
AcDbLine
 10
31.919019
 20
6.348880
 30
0.0
 11
31.803264
 21
5.092700
 31
0.0
  0
LINE
  5
158
100
AcDbEntity
  8
Layer_1
 62
7
100
AcDbLine
 10
31.803264
 20
5.092700
 30
0.0
 11
31.393027
 21
4.322700
 31
0.0
  0
LINE
  5
159
100
AcDbEntity
  8
Layer_1
 62
7
100
AcDbLine
 10
31.393027
 20
4.322700
 30
0.0
 11
30.593853
 21
3.936080
 31
0.0
  0
LINE
  5
15a
100
AcDbEntity
  8
Layer_1
 62
7
100
AcDbLine
 10
30.593853
 20
3.936080
 30
0.0
 11
29.311286
 21
3.830050
 31
0.0
  0
LINE
  5
15b
100
AcDbEntity
  8
Layer_1
 62
7
100
AcDbLine
 10
29.311286
 20
3.830050
 30
0.0
 11
26.466486
 21
3.830050
 31
0.0
  0
LINE
  5
15c
100
AcDbEntity
  8
Layer_1
 62
7
100
AcDbLine
 10
49.086169
 20
21.017350
 30
0.0
 11
46.752891
 21
20.901770
 31
0.0
  0
LINE
  5
15d
100
AcDbEntity
  8
Layer_1
 62
7
100
AcDbLine
 10
46.752891
 20
20.901770
 30
0.0
 11
44.805078
 21
20.526080
 31
0.0
  0
LINE
  5
15e
100
AcDbEntity
  8
Layer_1
 62
7
100
AcDbLine
 10
44.805078
 20
20.526080
 30
0.0
 11
43.219811
 21
19.846890
 31
0.0
  0
LINE
  5
15f
100
AcDbEntity
  8
Layer_1
 62
7
100
AcDbLine
 10
43.219811
 20
19.846890
 30
0.0
 11
41.974169
 21
18.820780
 31
0.0
  0
LINE
  5
160
100
AcDbEntity
  8
Layer_1
 62
7
100
AcDbLine
 10
41.974169
 20
18.820780
 30
0.0
 11
41.045233
 21
17.404340
 31
0.0
  0
LINE
  5
161
100
AcDbEntity
  8
Layer_1
 62
7
100
AcDbLine
 10
41.045233
 20
17.404340
 30
0.0
 11
40.410085
 21
15.554170
 31
0.0
  0
LINE
  5
162
100
AcDbEntity
  8
Layer_1
 62
7
100
AcDbLine
 10
40.410085
 20
15.554170
 30
0.0
 11
40.045803
 21
13.226850
 31
0.0
  0
LINE
  5
163
100
AcDbEntity
  8
Layer_1
 62
7
100
AcDbLine
 10
40.045803
 20
13.226850
 30
0.0
 11
39.929469
 21
10.378980
 31
0.0
  0
LINE
  5
164
100
AcDbEntity
  8
Layer_1
 62
7
100
AcDbLine
 10
39.929469
 20
10.378980
 30
0.0
 11
40.045803
 21
7.531110
 31
0.0
  0
LINE
  5
165
100
AcDbEntity
  8
Layer_1
 62
7
100
AcDbLine
 10
40.045803
 20
7.531110
 30
0.0
 11
40.410085
 21
5.203800
 31
0.0
  0
LINE
  5
166
100
AcDbEntity
  8
Layer_1
 62
7
100
AcDbLine
 10
40.410085
 20
5.203800
 30
0.0
 11
41.045233
 21
3.353630
 31
0.0
  0
LINE
  5
167
100
AcDbEntity
  8
Layer_1
 62
7
100
AcDbLine
 10
41.045233
 20
3.353630
 30
0.0
 11
41.974169
 21
1.937190
 31
0.0
  0
LINE
  5
168
100
AcDbEntity
  8
Layer_1
 62
7
100
AcDbLine
 10
41.974169
 20
1.937190
 30
0.0
 11
43.219811
 21
0.911080
 31
0.0
  0
LINE
  5
169
100
AcDbEntity
  8
Layer_1
 62
7
100
AcDbLine
 10
43.219811
 20
0.911080
 30
0.0
 11
44.805078
 21
0.231880
 31
0.0
  0
LINE
  5
16a
100
AcDbEntity
  8
Layer_1
 62
7
100
AcDbLine
 10
44.805078
 20
0.231880
 30
0.0
 11
46.752891
 21
-0.143800
 31
0.0
  0
LINE
  5
16b
100
AcDbEntity
  8
Layer_1
 62
7
100
AcDbLine
 10
46.752891
 20
-0.143800
 30
0.0
 11
49.086169
 21
-0.259380
 31
0.0
  0
LINE
  5
16c
100
AcDbEntity
  8
Layer_1
 62
7
100
AcDbLine
 10
49.086169
 20
-0.259380
 30
0.0
 11
51.420720
 21
-0.143800
 31
0.0
  0
LINE
  5
16d
100
AcDbEntity
  8
Layer_1
 62
7
100
AcDbLine
 10
51.420720
 20
-0.143800
 30
0.0
 11
53.371891
 21
0.231880
 31
0.0
  0
LINE
  5
16e
100
AcDbEntity
  8
Layer_1
 62
7
100
AcDbLine
 10
53.371891
 20
0.231880
 30
0.0
 11
54.961905
 21
0.911080
 31
0.0
  0
LINE
  5
16f
100
AcDbEntity
  8
Layer_1
 62
7
100
AcDbLine
 10
54.961905
 20
0.911080
 30
0.0
 11
56.212989
 21
1.937190
 31
0.0
  0
LINE
  5
170
100
AcDbEntity
  8
Layer_1
 62
7
100
AcDbLine
 10
56.212989
 20
1.937190
 30
0.0
 11
57.147366
 21
3.353630
 31
0.0
  0
LINE
  5
171
100
AcDbEntity
  8
Layer_1
 62
7
100
AcDbLine
 10
57.147366
 20
3.353630
 30
0.0
 11
57.787262
 21
5.203800
 31
0.0
  0
LINE
  5
172
100
AcDbEntity
  8
Layer_1
 62
7
100
AcDbLine
 10
57.787262
 20
5.203800
 30
0.0
 11
58.154901
 21
7.531110
 31
0.0
  0
LINE
  5
173
100
AcDbEntity
  8
Layer_1
 62
7
100
AcDbLine
 10
58.154901
 20
7.531110
 30
0.0
 11
58.272509
 21
10.378980
 31
0.0
  0
LINE
  5
174
100
AcDbEntity
  8
Layer_1
 62
7
100
AcDbLine
 10
58.272509
 20
10.378980
 30
0.0
 11
58.154901
 21
13.226850
 31
0.0
  0
LINE
  5
175
100
AcDbEntity
  8
Layer_1
 62
7
100
AcDbLine
 10
58.154901
 20
13.226850
 30
0.0
 11
57.787262
 21
15.554170
 31
0.0
  0
LINE
  5
176
100
AcDbEntity
  8
Layer_1
 62
7
100
AcDbLine
 10
57.787262
 20
15.554170
 30
0.0
 11
57.147366
 21
17.404340
 31
0.0
  0
LINE
  5
177
100
AcDbEntity
  8
Layer_1
 62
7
100
AcDbLine
 10
57.147366
 20
17.404340
 30
0.0
 11
56.212989
 21
18.820780
 31
0.0
  0
LINE
  5
178
100
AcDbEntity
  8
Layer_1
 62
7
100
AcDbLine
 10
56.212989
 20
18.820780
 30
0.0
 11
54.961905
 21
19.846890
 31
0.0
  0
LINE
  5
179
100
AcDbEntity
  8
Layer_1
 62
7
100
AcDbLine
 10
54.961905
 20
19.846890
 30
0.0
 11
53.371891
 21
20.526080
 31
0.0
  0
LINE
  5
17a
100
AcDbEntity
  8
Layer_1
 62
7
100
AcDbLine
 10
53.371891
 20
20.526080
 30
0.0
 11
51.420720
 21
20.901770
 31
0.0
  0
LINE
  5
17b
100
AcDbEntity
  8
Layer_1
 62
7
100
AcDbLine
 10
51.420720
 20
20.901770
 30
0.0
 11
49.086169
 21
21.017350
 31
0.0
  0
LINE
  5
17c
100
AcDbEntity
  8
Layer_1
 62
7
100
AcDbLine
 10
49.086169
 20
21.017350
 30
0.0
 11
49.086169
 21
21.017350
 31
0.0
  0
LINE
  5
17d
100
AcDbEntity
  8
Layer_1
 62
7
100
AcDbLine
 10
49.086169
 20
16.750150
 30
0.0
 11
49.977486
 21
16.683050
 31
0.0
  0
LINE
  5
17e
100
AcDbEntity
  8
Layer_1
 62
7
100
AcDbLine
 10
49.977486
 20
16.683050
 30
0.0
 11
50.704894
 21
16.463120
 31
0.0
  0
LINE
  5
17f
100
AcDbEntity
  8
Layer_1
 62
7
100
AcDbLine
 10
50.704894
 20
16.463120
 30
0.0
 11
51.282282
 21
16.062600
 31
0.0
  0
LINE
  5
180
100
AcDbEntity
  8
Layer_1
 62
7
100
AcDbLine
 10
51.282282
 20
16.062600
 30
0.0
 11
51.723541
 21
15.453730
 31
0.0
  0
LINE
  5
181
100
AcDbEntity
  8
Layer_1
 62
7
100
AcDbLine
 10
51.723541
 20
15.453730
 30
0.0
 11
52.042563
 21
14.608720
 31
0.0
  0
LINE
  5
182
100
AcDbEntity
  8
Layer_1
 62
7
100
AcDbLine
 10
52.042563
 20
14.608720
 30
0.0
 11
52.253238
 21
13.499780
 31
0.0
  0
LINE
  5
183
100
AcDbEntity
  8
Layer_1
 62
7
100
AcDbLine
 10
52.253238
 20
13.499780
 30
0.0
 11
52.405109
 21
10.379020
 31
0.0
  0
LINE
  5
184
100
AcDbEntity
  8
Layer_1
 62
7
100
AcDbLine
 10
52.405109
 20
10.379020
 30
0.0
 11
52.253238
 21
7.258260
 31
0.0
  0
LINE
  5
185
100
AcDbEntity
  8
Layer_1
 62
7
100
AcDbLine
 10
52.253238
 20
7.258260
 30
0.0
 11
52.042563
 21
6.149330
 31
0.0
  0
LINE
  5
186
100
AcDbEntity
  8
Layer_1
 62
7
100
AcDbLine
 10
52.042563
 20
6.149330
 30
0.0
 11
51.723541
 21
5.304320
 31
0.0
  0
LINE
  5
187
100
AcDbEntity
  8
Layer_1
 62
7
100
AcDbLine
 10
51.723541
 20
5.304320
 30
0.0
 11
51.282282
 21
4.695440
 31
0.0
  0
LINE
  5
188
100
AcDbEntity
  8
Layer_1
 62
7
100
AcDbLine
 10
51.282282
 20
4.695440
 30
0.0
 11
50.704894
 21
4.294930
 31
0.0
  0
LINE
  5
189
100
AcDbEntity
  8
Layer_1
 62
7
100
AcDbLine
 10
50.704894
 20
4.294930
 30
0.0
 11
49.977486
 21
4.075000
 31
0.0
  0
LINE
  5
18a
100
AcDbEntity
  8
Layer_1
 62
7
100
AcDbLine
 10
49.977486
 20
4.075000
 30
0.0
 11
49.086169
 21
4.007900
 31
0.0
  0
LINE
  5
18b
100
AcDbEntity
  8
Layer_1
 62
7
100
AcDbLine
 10
49.086169
 20
4.007900
 30
0.0
 11
48.194855
 21
4.075000
 31
0.0
  0
LINE
  5
18c
100
AcDbEntity
  8
Layer_1
 62
7
100
AcDbLine
 10
48.194855
 20
4.075000
 30
0.0
 11
47.467450
 21
4.294930
 31
0.0
  0
LINE
  5
18d
100
AcDbEntity
  8
Layer_1
 62
7
100
AcDbLine
 10
47.467450
 20
4.294930
 30
0.0
 11
46.890064
 21
4.695440
 31
0.0
  0
LINE
  5
18e
100
AcDbEntity
  8
Layer_1
 62
7
100
AcDbLine
 10
46.890064
 20
4.695440
 30
0.0
 11
46.448805
 21
5.304320
 31
0.0
  0
LINE
  5
18f
100
AcDbEntity
  8
Layer_1
 62
7
100
AcDbLine
 10
46.448805
 20
5.304320
 30
0.0
 11
46.129784
 21
6.149330
 31
0.0
  0
LINE
  5
190
100
AcDbEntity
  8
Layer_1
 62
7
100
AcDbLine
 10
46.129784
 20
6.149330
 30
0.0
 11
45.919110
 21
7.258260
 31
0.0
  0
LINE
  5
191
100
AcDbEntity
  8
Layer_1
 62
7
100
AcDbLine
 10
45.919110
 20
7.258260
 30
0.0
 11
45.767239
 21
10.379020
 31
0.0
  0
LINE
  5
192
100
AcDbEntity
  8
Layer_1
 62
7
100
AcDbLine
 10
45.767239
 20
10.379020
 30
0.0
 11
45.919110
 21
13.499780
 31
0.0
  0
LINE
  5
193
100
AcDbEntity
  8
Layer_1
 62
7
100
AcDbLine
 10
45.919110
 20
13.499780
 30
0.0
 11
46.129784
 21
14.608720
 31
0.0
  0
LINE
  5
194
100
AcDbEntity
  8
Layer_1
 62
7
100
AcDbLine
 10
46.129784
 20
14.608720
 30
0.0
 11
46.448805
 21
15.453730
 31
0.0
  0
LINE
  5
195
100
AcDbEntity
  8
Layer_1
 62
7
100
AcDbLine
 10
46.448805
 20
15.453730
 30
0.0
 11
46.890064
 21
16.062600
 31
0.0
  0
LINE
  5
196
100
AcDbEntity
  8
Layer_1
 62
7
100
AcDbLine
 10
46.890064
 20
16.062600
 30
0.0
 11
47.467450
 21
16.463120
 31
0.0
  0
LINE
  5
197
100
AcDbEntity
  8
Layer_1
 62
7
100
AcDbLine
 10
47.467450
 20
16.463120
 30
0.0
 11
48.194855
 21
16.683050
 31
0.0
  0
LINE
  5
198
100
AcDbEntity
  8
Layer_1
 62
7
100
AcDbLine
 10
48.194855
 20
16.683050
 30
0.0
 11
49.086169
 21
16.750150
 31
0.0
  0
LINE
  5
199
100
AcDbEntity
  8
Layer_1
 62
7
100
AcDbLine
 10
49.086169
 20
16.750150
 30
0.0
 11
49.086169
 21
16.750150
 31
0.0
  0
LINE
  5
19a
100
AcDbEntity
  8
Layer_1
 62
7
100
AcDbLine
 10
68.738829
 20
20.987720
 30
0.0
 11
66.737248
 21
20.928920
 31
0.0
  0
LINE
  5
19b
100
AcDbEntity
  8
Layer_1
 62
7
100
AcDbLine
 10
66.737248
 20
20.928920
 30
0.0
 11
65.055498
 21
20.733980
 31
0.0
  0
LINE
  5
19c
100
AcDbEntity
  8
Layer_1
 62
7
100
AcDbLine
 10
65.055498
 20
20.733980
 30
0.0
 11
63.677258
 21
20.375140
 31
0.0
  0
LINE
  5
19d
100
AcDbEntity
  8
Layer_1
 62
7
100
AcDbLine
 10
63.677258
 20
20.375140
 30
0.0
 11
62.586206
 21
19.824610
 31
0.0
  0
LINE
  5
19e
100
AcDbEntity
  8
Layer_1
 62
7
100
AcDbLine
 10
62.586206
 20
19.824610
 30
0.0
 11
61.766022
 21
19.054610
 31
0.0
  0
LINE
  5
19f
100
AcDbEntity
  8
Layer_1
 62
7
100
AcDbLine
 10
61.766022
 20
19.054610
 30
0.0
 11
61.200384
 21
18.037350
 31
0.0
  0
LINE
  5
1a0
100
AcDbEntity
  8
Layer_1
 62
7
100
AcDbLine
 10
61.200384
 20
18.037350
 30
0.0
 11
60.872970
 21
16.745060
 31
0.0
  0
LINE
  5
1a1
100
AcDbEntity
  8
Layer_1
 62
7
100
AcDbLine
 10
60.872970
 20
16.745060
 30
0.0
 11
60.767459
 21
15.149950
 31
0.0
  0
LINE
  5
1a2
100
AcDbEntity
  8
Layer_1
 62
7
100
AcDbLine
 10
60.767459
 20
15.149950
 30
0.0
 11
61.003136
 21
13.108950
 31
0.0
  0
LINE
  5
1a3
100
AcDbEntity
  8
Layer_1
 62
7
100
AcDbLine
 10
61.003136
 20
13.108950
 30
0.0
 11
61.312839
 21
12.243340
 31
0.0
  0
LINE
  5
1a4
100
AcDbEntity
  8
Layer_1
 62
7
100
AcDbLine
 10
61.312839
 20
12.243340
 30
0.0
 11
61.763879
 21
11.468010
 31
0.0
  0
LINE
  5
1a5
100
AcDbEntity
  8
Layer_1
 62
7
100
AcDbLine
 10
61.763879
 20
11.468010
 30
0.0
 11
62.366327
 21
10.773240
 31
0.0
  0
LINE
  5
1a6
100
AcDbEntity
  8
Layer_1
 62
7
100
AcDbLine
 10
62.366327
 20
10.773240
 30
0.0
 11
63.130254
 21
10.149320
 31
0.0
  0
LINE
  5
1a7
100
AcDbEntity
  8
Layer_1
 62
7
100
AcDbLine
 10
63.130254
 20
10.149320
 30
0.0
 11
65.182829
 21
9.075120
 31
0.0
  0
LINE
  5
1a8
100
AcDbEntity
  8
Layer_1
 62
7
100
AcDbLine
 10
65.182829
 20
9.075120
 30
0.0
 11
69.272229
 21
7.445280
 31
0.0
  0
LINE
  5
1a9
100
AcDbEntity
  8
Layer_1
 62
7
100
AcDbLine
 10
69.272229
 20
7.445280
 30
0.0
 11
70.039451
 21
7.126720
 31
0.0
  0
LINE
  5
1aa
100
AcDbEntity
  8
Layer_1
 62
7
100
AcDbLine
 10
70.039451
 20
7.126720
 30
0.0
 11
70.542754
 21
6.785940
 31
0.0
  0
LINE
  5
1ab
100
AcDbEntity
  8
Layer_1
 62
7
100
AcDbLine
 10
70.542754
 20
6.785940
 30
0.0
 11
70.818252
 21
6.345140
 31
0.0
  0
LINE
  5
1ac
100
AcDbEntity
  8
Layer_1
 62
7
100
AcDbLine
 10
70.818252
 20
6.345140
 30
0.0
 11
70.902062
 21
5.726550
 31
0.0
  0
LINE
  5
1ad
100
AcDbEntity
  8
Layer_1
 62
7
100
AcDbLine
 10
70.902062
 20
5.726550
 30
0.0
 11
70.792788
 21
5.089890
 31
0.0
  0
LINE
  5
1ae
100
AcDbEntity
  8
Layer_1
 62
7
100
AcDbLine
 10
70.792788
 20
5.089890
 30
0.0
 11
70.405702
 21
4.700500
 31
0.0
  0
LINE
  5
1af
100
AcDbEntity
  8
Layer_1
 62
7
100
AcDbLine
 10
70.405702
 20
4.700500
 30
0.0
 11
69.651903
 21
4.505570
 31
0.0
  0
LINE
  5
1b0
100
AcDbEntity
  8
Layer_1
 62
7
100
AcDbLine
 10
69.651903
 20
4.505570
 30
0.0
 11
68.442492
 21
4.452370
 31
0.0
  0
LINE
  5
1b1
100
AcDbEntity
  8
Layer_1
 62
7
100
AcDbLine
 10
68.442492
 20
4.452370
 30
0.0
 11
61.300862
 21
4.600530
 31
0.0
  0
LINE
  5
1b2
100
AcDbEntity
  8
Layer_1
 62
7
100
AcDbLine
 10
61.300862
 20
4.600530
 30
0.0
 11
60.974892
 21
0.659300
 31
0.0
  0
LINE
  5
1b3
100
AcDbEntity
  8
Layer_1
 62
7
100
AcDbLine
 10
60.974892
 20
0.659300
 30
0.0
 11
63.367322
 21
0.170350
 31
0.0
  0
LINE
  5
1b4
100
AcDbEntity
  8
Layer_1
 62
7
100
AcDbLine
 10
63.367322
 20
0.170350
 30
0.0
 11
65.468048
 21
-0.096350
 31
0.0
  0
LINE
  5
1b5
100
AcDbEntity
  8
Layer_1
 62
7
100
AcDbLine
 10
65.468048
 20
-0.096350
 30
0.0
 11
68.472132
 21
-0.229700
 31
0.0
  0
LINE
  5
1b6
100
AcDbEntity
  8
Layer_1
 62
7
100
AcDbLine
 10
68.472132
 20
-0.229700
 30
0.0
 11
70.543049
 21
-0.158300
 31
0.0
  0
LINE
  5
1b7
100
AcDbEntity
  8
Layer_1
 62
7
100
AcDbLine
 10
70.543049
 20
-0.158300
 30
0.0
 11
72.260103
 21
0.069390
 31
0.0
  0
LINE
  5
1b8
100
AcDbEntity
  8
Layer_1
 62
7
100
AcDbLine
 10
72.260103
 20
0.069390
 30
0.0
 11
73.647255
 21
0.473490
 31
0.0
  0
LINE
  5
1b9
100
AcDbEntity
  8
Layer_1
 62
7
100
AcDbLine
 10
73.647255
 20
0.473490
 30
0.0
 11
74.728467
 21
1.074140
 31
0.0
  0
LINE
  5
1ba
100
AcDbEntity
  8
Layer_1
 62
7
100
AcDbLine
 10
74.728467
 20
1.074140
 30
0.0
 11
75.527699
 21
1.891490
 31
0.0
  0
LINE
  5
1bb
100
AcDbEntity
  8
Layer_1
 62
7
100
AcDbLine
 10
75.527699
 20
1.891490
 30
0.0
 11
76.068914
 21
2.945670
 31
0.0
  0
LINE
  5
1bc
100
AcDbEntity
  8
Layer_1
 62
7
100
AcDbLine
 10
76.068914
 20
2.945670
 30
0.0
 11
76.376071
 21
4.256830
 31
0.0
  0
LINE
  5
1bd
100
AcDbEntity
  8
Layer_1
 62
7
100
AcDbLine
 10
76.376071
 20
4.256830
 30
0.0
 11
76.473131
 21
5.845110
 31
0.0
  0
LINE
  5
1be
100
AcDbEntity
  8
Layer_1
 62
7
100
AcDbLine
 10
76.473131
 20
5.845110
 30
0.0
 11
76.244861
 21
7.878700
 31
0.0
  0
LINE
  5
1bf
100
AcDbEntity
  8
Layer_1
 62
7
100
AcDbLine
 10
76.244861
 20
7.878700
 30
0.0
 11
75.940251
 21
8.749640
 31
0.0
  0
LINE
  5
1c0
100
AcDbEntity
  8
Layer_1
 62
7
100
AcDbLine
 10
75.940251
 20
8.749640
 30
0.0
 11
75.491525
 21
9.534460
 31
0.0
  0
LINE
  5
1c1
100
AcDbEntity
  8
Layer_1
 62
7
100
AcDbLine
 10
75.491525
 20
9.534460
 30
0.0
 11
74.885835
 21
10.241490
 31
0.0
  0
LINE
  5
1c2
100
AcDbEntity
  8
Layer_1
 62
7
100
AcDbLine
 10
74.885835
 20
10.241490
 30
0.0
 11
74.110331
 21
10.879070
 31
0.0
  0
LINE
  5
1c3
100
AcDbEntity
  8
Layer_1
 62
7
100
AcDbLine
 10
74.110331
 20
10.879070
 30
0.0
 11
71.998491
 21
11.979210
 31
0.0
  0
LINE
  5
1c4
100
AcDbEntity
  8
Layer_1
 62
7
100
AcDbLine
 10
71.998491
 20
11.979210
 30
0.0
 11
68.235061
 21
13.431250
 31
0.0
  0
LINE
  5
1c5
100
AcDbEntity
  8
Layer_1
 62
7
100
AcDbLine
 10
68.235061
 20
13.431250
 30
0.0
 11
67.316892
 21
13.792860
 31
0.0
  0
LINE
  5
1c6
100
AcDbEntity
  8
Layer_1
 62
7
100
AcDbLine
 10
67.316892
 20
13.792860
 30
0.0
 11
66.712650
 21
14.168370
 31
0.0
  0
LINE
  5
1c7
100
AcDbEntity
  8
Layer_1
 62
7
100
AcDbLine
 10
66.712650
 20
14.168370
 30
0.0
 11
66.380663
 21
14.627230
 31
0.0
  0
LINE
  5
1c8
100
AcDbEntity
  8
Layer_1
 62
7
100
AcDbLine
 10
66.380663
 20
14.627230
 30
0.0
 11
66.279261
 21
15.238880
 31
0.0
  0
LINE
  5
1c9
100
AcDbEntity
  8
Layer_1
 62
7
100
AcDbLine
 10
66.279261
 20
15.238880
 30
0.0
 11
66.400110
 21
15.913040
 31
0.0
  0
LINE
  5
1ca
100
AcDbEntity
  8
Layer_1
 62
7
100
AcDbLine
 10
66.400110
 20
15.913040
 30
0.0
 11
66.801550
 21
16.298270
 31
0.0
  0
LINE
  5
1cb
100
AcDbEntity
  8
Layer_1
 62
7
100
AcDbLine
 10
66.801550
 20
16.298270
 30
0.0
 11
67.541920
 21
16.472360
 31
0.0
  0
LINE
  5
1cc
100
AcDbEntity
  8
Layer_1
 62
7
100
AcDbLine
 10
67.541920
 20
16.472360
 30
0.0
 11
68.679561
 21
16.513160
 31
0.0
  0
LINE
  5
1cd
100
AcDbEntity
  8
Layer_1
 62
7
100
AcDbLine
 10
68.679561
 20
16.513160
 30
0.0
 11
75.495231
 21
16.424260
 31
0.0
  0
LINE
  5
1ce
100
AcDbEntity
  8
Layer_1
 62
7
100
AcDbLine
 10
75.495231
 20
16.424260
 30
0.0
 11
75.850831
 21
20.069160
 31
0.0
  0
LINE
  5
1cf
100
AcDbEntity
  8
Layer_1
 62
7
100
AcDbLine
 10
75.850831
 20
20.069160
 30
0.0
 11
74.031157
 21
20.537740
 31
0.0
  0
LINE
  5
1d0
100
AcDbEntity
  8
Layer_1
 62
7
100
AcDbLine
 10
74.031157
 20
20.537740
 30
0.0
 11
72.183703
 21
20.817410
 31
0.0
  0
LINE
  5
1d1
100
AcDbEntity
  8
Layer_1
 62
7
100
AcDbLine
 10
72.183703
 20
20.817410
 30
0.0
 11
68.738831
 21
20.987800
 31
0.0
  0
LINE
  5
1d2
100
AcDbEntity
  8
Layer_1
 62
7
100
AcDbLine
 10
68.738831
 20
20.987800
 30
0.0
 11
68.738831
 21
20.987800
 31
0.0
  0
ENDSEC
  0
SECTION
  2
OBJECTS
  0
DICTIONARY
  5
C
330
0
100
AcDbDictionary
  3
ACAD_GROUP
350
D
  3
ACAD_MLINESTYLE
350
17
  0
DICTIONARY
  5
D
330
C
100
AcDbDictionary
  0
DICTIONARY
  5
1A
330
C
100
AcDbDictionary
  0
DICTIONARY
  5
17
330
C
100
AcDbDictionary
  3
STANDARD
350
18
  0
DICTIONARY
  5
19
330
C
100
AcDbDictionary
  0
ENDSEC
  0
EOF
